<mxfile host="app.diagrams.net" modified="2023-04-24T00:03:57.643Z" agent="Mozilla/5.0 (Windows NT 10.0; Win64; x64) AppleWebKit/537.36 (KHTML, like Gecko) Chrome/112.0.0.0 Safari/537.36" version="21.2.1" etag="Nq99pjBH18x-3txBlJtx" type="github">
  <diagram name="페이지-1" id="N60ApJPS977-34N3iDgW">
    <mxGraphModel>
      <root>
        <mxCell id="0" />
        <mxCell id="1" parent="0" />
      </root>
    </mxGraphModel>
  </diagram>
</mxfile>
